/* XPM */
static char *x_xpm[] = {
/* width height num_colors chars_per_pixel */
"    32    32      256            2",
/* colors */
"`` c #0c06e0",
"`. c #5482a4",
"`# c #941284",
"`a c #c4c2e4",
"`b c #4c46bc",
"`c c #fc8254",
"`d c #4c1ed4",
"`e c #2422c4",
"`f c #84aecc",
"`g c #9c429c",
"`h c #b4a6ac",
"`i c #d4e2e8",
"`j c #5c62d4",
"`k c #d44254",
"`l c #1c12d3",
"`m c #f4a280",
"`n c #8482cc",
"`o c #ec6654",
"`p c #fcc6cc",
"`q c #f4f2fc",
"`r c #6c66c4",
"`s c #8cb2c4",
"`t c #1c0efc",
"`u c #3432bc",
"`v c #d4bebc",
"`w c #e40a24",
"`x c #b4d2dc",
"`y c #647ac4",
"`z c #0c02ed",
"`A c #5452c4",
"`B c #eceaf4",
"`C c #9496d4",
"`D c #6c92ac",
"`E c #dc9e8c",
"`F c #9cb2bc",
"`G c #f45a3c",
"`H c #1c12fc",
"`I c #e4b6ac",
"`J c #acaadc",
"`K c #fc7244",
"`L c #fc2224",
"`M c #e4e2f4",
"`N c #7c76cc",
"`O c #d4c2bc",
"`P c #4422e4",
"`Q c #0c0afa",
"`R c #742aac",
"`S c #2c22fc",
"`T c #d4eaec",
"`U c #545aec",
"`V c #acbae4",
"`W c #fc8284",
"`X c #ecae9c",
"`Y c #fc6a3c",
"`Z c #8cbabc",
"`0 c #3c32fc",
"`1 c #d41a4c",
"`2 c #9492fc",
"`3 c #1c1af4",
"`4 c #7c72fc",
"`5 c #648aac",
"`6 c #fc8a59",
"`7 c #bc5284",
"`8 c #dce2e1",
".` c #8482f4",
".. c #d4d6ec",
".# c #7496ac",
".a c #fc5e4c",
".b c #140ed4",
".c c #4c42fc",
".d c #a4a2fc",
".e c #ec4e3c",
".f c #f4aa91",
".g c #f4fafc",
".h c #6c62fc",
".i c #8cb6d4",
".j c #c4baf4",
".k c #fc9264",
".l c #9cbac4",
".m c #fc5e38",
".n c #acaefc",
".o c #1406dc",
".p c #8c3294",
".q c #bccad1",
".r c #4c2eec",
".s c #a4aab4",
".t c #241acc",
".u c #fc6234",
".v c #fc020c",
".w c #c4d2d4",
".x c #1406fc",
".y c #fcb2b4",
".z c #ccc2ec",
".A c #140afc",
".B c #2c2af4",
".C c #645afc",
".D c #9c9afc",
".E c #2c1af4",
".F c #7c7afc",
".G c #6c8eac",
".H c #fc9a6c",
".I c #342ac4",
".J c #94aebc",
".K c #b45284",
".L c #3476a4",
".M c #dc4e54",
".N c #f4a68c",
".O c #dcdeec",
".P c #94b2c4",
".Q c #3c3abc",
".R c #0c02fc",
".S c #5c5ac4",
".T c #fceaec",
".U c #fc5630",
".V c #dcbac4",
".W c #fc7a4c",
".X c #fc3234",
".Y c #6c36c4",
".Z c #443afc",
".0 c #648eb4",
".1 c #fc8a6c",
".2 c #dce2ec",
".3 c #948afc",
".4 c #749eb4",
".5 c #544afc",
".6 c #fcfafc",
".7 c #6c6eec",
".8 c #ccbee4",
"#` c #a4becc",
"#. c #c43e5c",
"## c #fc1214",
"#a c #acbac4",
"#b c #fcd6d4",
"#c c #7472fc",
"#d c #a43a84",
"#e c #bcbedc",
"#f c #cc526c",
"#g c #5c26c4",
"#h c #5c36dc",
"#i c #649ebc",
"#j c #cccecc",
"#k c #447eac",
"#l c #7472c4",
"#m c #fc4e54",
"#n c #bcb6fc",
"#o c #8c8acc",
"#p c #fc0e19",
"#q c #fc1e24",
"#r c #e44644",
"#s c #fcb2a4",
"#t c #aca6fc",
"#u c #fc2a34",
"#v c #847ecc",
"#w c #943a94",
"#x c #fc624c",
"#y c #5c56fc",
"#z c #c4cecc",
"#A c #746afc",
"#B c #e4eaec",
"#C c #d4dee4",
"#D c #d4bed4",
"#E c #fc3a34",
"#F c #cc5a6c",
"#G c #94bacc",
"#H c #d4c2df",
"#I c #544ac4",
"#J c #240af4",
"#K c #f4eeec",
"#L c #7c2aa4",
"#M c #241afc",
"#N c #8c82fc",
"#O c #7c9ab4",
"#P c #3c7aac",
"#Q c #5c86a4",
"#R c #fc8664",
"#S c #2c22c4",
"#T c #dc4654",
"#U c #5c56c4",
"#V c #9c96d4",
"#W c #9cb6cc",
"#X c #2416fc",
"#Y c #e4babc",
"#Z c #3426fc",
"#0 c #4436fc",
"#1 c #9c92fc",
"#2 c #fc9274",
"#3 c #9cbad4",
"#4 c #b4b1fc",
"#5 c #bccedc",
"#6 c #c4d6e4",
"#7 c #a49efc",
"#8 c #847dfc",
"a` c #b4528c",
"a. c #443bbc",
"a# c #645ec4",
"aa c #dcbed4",
"ab c #6c9abc",
"ac c #8caec4",
"ad c #94b6cc",
"ae c #342afc",
"af c #bcd2dc",
"ag c #dceaec",
"ah c #94aecc",
"ai c #7c9eb4",
"aj c #ccbef4",
"ak c #d4e6ec",
"al c #1c16cc",
"am c #f4a684",
"an c #fc6e42",
"ao c #648ea8",
"ap c #fc8e5c",
"aq c #9cbecc",
"ar c #140ad8",
"as c #241ec4",
"at c #fc663c",
"au c #fc0614",
"av c #c4d6dc",
"aw c #140ef8",
"ax c #2c1efc",
"ay c #fc9e74",
"az c #b4567c",
"aA c #94b6c1",
"aB c #fc5a2c",
"aC c #fcfefc",
"aD c #fc6644",
"aE c #fc8654",
"aF c #f4f6fc",
"aG c #6c6ac4",
"aH c #eceef4",
"aI c #1c16fc",
"aJ c #fc7644",
"aK c #7c7acc",
"aL c #2c26fc",
"aM c #3c36fc",
"aN c #7c76fc",
"aO c #4c46fc",
"aP c #6c66fc",
"aQ c #c4bef4",
"aR c #fc9664",
"aS c #4c32ec",
"aT c #645efc",
"aU c #0c06fc",
"aV c #fc7e4c",
"aW c #dce6ec",
"aX c #544efc",
"aY c #acbec4",
"aZ c #fcdad4",
"a0 c #8c8ecc",
"a1 c #acaafc",
"a2 c #5c5afc",
"a3 c #7c2ea4",
"a4 c #241efc",
"a5 c #8c86fc",
"a6 c #2c26c4",
"a7 c #9c9ad4",
"a8 c #9c96fc",
/* pixels */
"aCaCaCaCaCaCaCaCaCaCaC..aG`u.I.b`la6.Q`N`BaCaCaCaCaCaCaCaCaCaCaC",
"aCaCaCaCaCaCaCaC.6a#`l.R.R.R.R.R.R.R.R.R.Ral`naCaCaCaCaCaCaCaCaC",
"aCaCaCaCaCaCaC#v``.R.R.R.R.R.R.R.R.R.R.R.R.R.R`l`JaCaCaCaCaCaCaC",
"aCaCaCaCaCaF.I.R.R.R.R.R.R.R.R.R.R.R.R.R.R.R.R.R.R#UaCaCaCaCaCaC",
"aCaCaCaC.O`l.R.R.R.R.R.R.R.R.R.R.R.R.R.R.R.R.R.R.R.R.I`qaCaCaCaC",
"aCaCaC`qar.R.R.R.R.R.R.R.R.R.R.R.R.R.R.R.R.R.R.R.R.R.R`eaCaCaCaC",
"aCaCaC.t.R.R.R.R.R.R.R.R.R.R.R#P`5#Q#Q`5#Q#Q.0#P.R.R.R.R#IaCaCaC",
"aCaCaG.R.R.R.R.R.R.R.R.R.R.R.R`faF#C.qaH.w..aFah.R.R.R.R.R`JaCaC",
"aC`B`z.R.R.R.R.R.R.R.R.R.R.R.R.iaCakafaC#6`TaC#G.R.R.R.R.R`laCaC",
"aC`b.R.R.R.R.R.R.R.R.R.R.R.x.Rab#j#a.J#z`F#`#jai.R.R.R.R.R.R#oaC",
"aC.o.R.R.R.R.R.R.R.R.R.R.R.x.xad.6ag`OaZ`vaW.6#``t.x.x.R.R.RasaC",
"`C.R.R.R.R.R.R.R.R.R.R.x.x`t#M.s#2`Yan`Kanan.1`h`S`H.A.x.R.R.RaH",
"`b.R.R.R.R.R.R.R.R.R.R.xawax`gat.Wap`m.fam.HaE`K`7ae#X.x.R.R.R`n",
"al.R.R.R.R#i#``x`x#5`x`xacazanap`Iaja1.d.d#n#D`maV#Fae#X.x.R.R#I",
"ar.R.R.R.A#G#BaCaCaCaCaC`E`Y.kaa#t.`#A.h.h`4`2#n`XaVa``S`t.R.R.I",
"`z.R.R.R`Q.P`8aCaCaCaC#KaDaE.V#7#caX.Z`0aM#y.7a5.j`m`K#h#X.x.Ras",
"``.R.R.R.RaA.2aCaCaCaC#sanay#4aN.5ae#Ma2`V#Bac.C`2aa#R.K`S.A.R.t",
".o.R.R.RaUaA`iaCaC.6aC#RaV#Y`2aT`0#Xa1avaWaC#W.c`4#4ay`o#Z`t.Ra6",
"al.R.R.R.RaA`8aCaCaCaCan`6#H#N.5`S`j.q.J.l.qabaM.h.d.f`K.raw.R`b",
"a..R.R.R.RaA`i.g.g.g.g.u`6#H#8.5.Z.qaCav`iaC.l`0aT#7`X`K#h`H.R#v",
"#o.R.R.R.RaU`Qaw`Q`3.B`G`caaa5aX.`.qaF.w#CaF.PaMaP#t.N`K.r`t.R.O",
".6`z.R.R.R.R.R.R.R.x#X.M.W`I#7.h`yao.#.G`D#O#k.5#8#naRat#Zaw`laC",
"aCa..R.R.R.R.R.R.R.R`H#wataRaQa5#y.ZaLaxaxaeaO#A#7#Y`c#f#M.A#vaC",
"aC`B`z.R.R.R.R.R.R.R.A`P.UaV`X#4#NaTaX.caO#y`4a8.8aR`Y.Y#X`laCaC",
"aCaC`A.R.R.R.R.R.R.R.x`H#d.m`c`XaQ.D#NaN#8a5#t#D.H.a#r#M.A#VaCaC",
"aCaC.6`l.R.R.R.R.R.R.R.A#X`k.uaV.H#Y#H.j.zaa`X`6.a#E#q`#a.aCaCaC",
"aCaCaC`M``.R.R.R.R.R.R.x.A.E#..U`Y.W`6apap`caJ.m.X#q##au#maCaCaC",
"aCaCaCaC`a``.R.R.R.R.R.R.x.x#X`R#r.U.m.u.maB.e.p`1#pau.v.v#u.TaC",
"aCaCaCaCaC`M`l.R.R.R.R.R.R.R.xaw`H`d#L#La3#g#X`t#J`w.v.v.v.v#p`p",
"aCaCaCaCaCaC.6`A`z.R.R.R.R.R.R.x.x.x.x`t.x.x.xar`N#b#p.v.v.v.v.v",
"aCaCaCaCaCaCaCaC`Ma.`z.R.R.R.R.R.R.R.R.R.R.o#U`qaCaC.y.v.v.v.v.v",
"aCaCaCaCaCaCaCaCaCaCaCa7a.#Sar``arara6`b#eaCaCaCaCaCaC`W.v.v.v.v"
};
